<?xml version="1.0"?><svg fill="#000000" xmlns="http://www.w3.org/2000/svg"  viewBox="0 0 24 24" width="24px" height="24px">    <path d="M21.634,4.031c-0.815,0.385-2.202,1.107-2.899,1.245c-0.027,0.007-0.049,0.016-0.075,0.023 c-0.813-0.802-1.927-1.299-3.16-1.299c-2.485,0-4.5,2.015-4.5,4.5c0,0.131-0.011,0.372,0,0.5c-3.218,0-5.568-1.679-7.327-3.837 C3.438,4.873,3.188,5.024,3.136,5.23C3.019,5.696,2.979,6.475,2.979,7.031c0,1.401,1.095,2.777,2.8,3.63 c-0.314,0.081-0.66,0.139-1.02,0.139c-0.424,0-0.912-0.111-1.339-0.335c-0.158-0.083-0.499-0.06-0.398,0.344 c0.405,1.619,2.253,2.756,3.904,3.087c-0.375,0.221-1.175,0.176-1.543,0.176c-0.136,0-0.609-0.032-0.915-0.07 c-0.279-0.034-0.708,0.038-0.349,0.582c0.771,1.167,2.515,1.9,4.016,1.928c-1.382,1.084-3.642,1.48-5.807,1.48 c-0.438-0.01-0.416,0.489-0.063,0.674C3.862,19.504,6.478,20,8.347,20C15.777,20,20,14.337,20,8.999 c0-0.086-0.002-0.266-0.005-0.447C19.995,8.534,20,8.517,20,8.499c0-0.027-0.008-0.053-0.008-0.08 c-0.003-0.136-0.006-0.263-0.009-0.329c0.589-0.425,1.491-1.163,1.947-1.728c0.155-0.192,0.03-0.425-0.181-0.352 c-0.543,0.189-1.482,0.555-2.07,0.625c1.177-0.779,1.759-1.457,2.259-2.21C22.109,4.168,21.895,3.907,21.634,4.031z"/></svg>